<?xml version="1.0" standalone="no"?>
<!DOCTYPE svg PUBLIC "-//W3C//DTD SVG 1.1//EN" "http://www.w3.org/Graphics/SVG/1.1/DTD/svg11.dtd" >
<svg xmlns="http://www.w3.org/2000/svg">
<metadata></metadata>
<defs>
<font id="a_groticcnbold" horiz-adv-x="807" >
<font-face units-per-em="2048" ascent="1638" descent="-410" />
<missing-glyph horiz-adv-x="512" />
<glyph horiz-adv-x="0" />
<glyph unicode="&#xd;" horiz-adv-x="512" />
<glyph unicode=" "  horiz-adv-x="512" />
<glyph unicode="&#x09;" horiz-adv-x="512" />
<glyph unicode="&#xa0;" horiz-adv-x="512" />
<glyph unicode="!" horiz-adv-x="459" d="M86 1487h287l-45 -1012h-193zM111 0v295h241v-295h-241z" />
<glyph unicode="&#x22;" horiz-adv-x="649" d="M49 1487h250l-35 -559h-174zM352 1487h248l-41 -559h-170z" />
<glyph unicode="#" horiz-adv-x="760" d="M14 406v194h129l35 266h-164v195h191l45 358h156l-48 -358h127l47 358h154l-47 -358h106v-195h-131l-34 -266h165v-194h-190l-49 -359h-154l45 359h-127l-47 -359h-151l47 359h-105zM297 600h127l35 266h-127z" />
<glyph unicode="$" horiz-adv-x="760" d="M18 440h199q0 -174 90 -256v482l-90 41q-186 85 -186 327q0 143 69 249q76 119 207 136v170h146v-170q122 -16 196 -110q76 -97 76 -248h-188q0 119 -84 203v-453l32 -14q144 -63 200 -143.5t56 -215.5q0 -160 -76 -278q-81 -126 -212 -142v-200h-146v200 q-289 27 -289 422zM217 1047q0 -111 90 -166v376q-90 -79 -90 -210zM453 184q90 82 90 232q0 136 -90 202v-434z" />
<glyph unicode="%" horiz-adv-x="1251" d="M49 1096q0 176 67 281q71 110 197 110q125 0 196 -108q66 -101 66 -267q0 -182 -67 -289q-71 -114 -201 -114q-121 0 -191 110q-67 105 -67 277zM244 -27l565 1514h192l-567 -1514h-190zM272 1100q0 -223 35 -223q45 0 45 233q0 213 -39 213q-41 0 -41 -223zM674 358 q0 177 67 283q71 111 195 111q127 0 198 -108q68 -101 68 -267q0 -180 -69 -289q-73 -115 -203 -115q-122 0 -191 110q-65 104 -65 275zM895 362q0 -219 41 -219q43 0 43 232q0 213 -43 213q-41 0 -41 -226z" />
<glyph unicode="&#x26;" horiz-adv-x="928" d="M43 367q0 141 41 231q46 102 176 217q-104 205 -104 324q0 132 70 233q80 115 210 115q129 0 203 -111q61 -92 61 -211q0 -203 -174 -374l92 -168q6 43 9 98h225q-10 -185 -82 -393l176 -328h-254l-51 98q-102 -125 -264 -125q-186 0 -275 159q-59 107 -59 235zM276 381 q0 -205 101 -205h8q79 0 147 131l-172 328q-84 -90 -84 -254zM383 1147q0 -88 43 -170q47 78 47 172q0 141 -39 141q-51 0 -51 -131v-12z" />
<glyph unicode="'" horiz-adv-x="348" d="M49 1487h250l-16 -559h-215z" />
<glyph unicode="(" horiz-adv-x="469" d="M68 610q0 412 172 1065h211q-138 -579 -138 -1065q0 -495 138 -1065h-211q-172 656 -172 1065z" />
<glyph unicode=")" horiz-adv-x="469" d="M18 -455q138 558 138 1065q0 510 -138 1065h213q170 -634 170 -1065q0 -428 -170 -1065h-213z" />
<glyph unicode="*" d="M113 1118v146l213 -25l-138 178l129 82l86 -217l76 217l131 -82l-129 -178l211 25v-146l-211 25l129 -176l-131 -84l-76 217l-86 -215l-129 82l138 176z" />
<glyph unicode="+" d="M39 629v182h272v295h183v-295h272v-182h-272v-295h-183v295h-272z" />
<glyph unicode="," horiz-adv-x="385" d="M37 -246l55 520h252q0 -121 -139 -469l-21 -51h-147z" />
<glyph unicode="-" horiz-adv-x="442" d="M43 410v217h356v-217h-356z" />
<glyph unicode="." horiz-adv-x="385" d="M82 0v274h221v-274h-221z" />
<glyph unicode="/" horiz-adv-x="565" d="M55 -27l248 1540h207l-250 -1540h-205z" />
<glyph unicode="0" horiz-adv-x="760" d="M31 680v37q0 700 348 700q189 0 273 -181q77 -167 77 -519v-35q0 -709 -350 -709q-348 0 -348 707zM268 682q0 -496 111 -496q110 0 110 496v35q0 489 -110 489q-111 0 -111 -489v-35z" />
<glyph unicode="1" horiz-adv-x="760" d="M82 0v207h192v889q-49 -29 -149 -66v219q88 68 162 168h223v-1210h178v-207h-606z" />
<glyph unicode="2" horiz-adv-x="760" d="M43 207q283 393 358 539q70 136 70 280q0 180 -84 180q-44 0 -63 -41q-23 -50 -23 -178h-244q0 194 91.5 312t238.5 118q142 0 232 -112.5t90 -280.5q0 -142 -47 -255q-41 -97 -170 -286l-189 -276h406v-207h-652z" />
<glyph unicode="3" horiz-adv-x="760" d="M23 403h245q0 -120 22.5 -165t74.5 -45q120 0 120 204q0 236 -155 236h-90v188q132 0 182 49q47 45 47 162q0 180 -90 180q-105 0 -105 -196h-243q0 171 91 283q95 118 253 118q153 0 247 -111q89 -105 89 -264q0 -96 -46 -184q-44 -82 -106 -117v-6q79 -42 123.5 -134 t44.5 -206q0 -171 -97 -289q-104 -126 -272 -126q-158 0 -248 118q-87 114 -87 305z" />
<glyph unicode="4" horiz-adv-x="760" d="M-2 498q235 404 360 919h234q-153 -554 -395 -903h184v209q160 197 231 362v-571h142v-199h-142v-315h-231v315h-334z" />
<glyph unicode="5" horiz-adv-x="760" d="M37 373h246q12 -114 34 -154q18 -35 58 -35q45 0 75 84q31 90 31 244q0 258 -110 258q-67 0 -97 -168h-227l23 791h618v-205h-397l-6 -248q55 29 118 29q156 0 242 -132q80 -124 80 -329q0 -244 -100 -387.5t-273 -143.5q-140 0 -225 114q-80 107 -90 282z" />
<glyph unicode="6" horiz-adv-x="760" d="M31 655q0 762 375 762q153 0 240 -134q71 -110 71 -245h-242q0 187 -72 187q-129 0 -129 -338q63 39 144 39q136 0 227.5 -129.5t91.5 -319.5q0 -217 -98.5 -357t-249.5 -140q-358 0 -358 675zM274 446q0 -137 39 -210q32 -62 80 -62q107 0 107 283q0 136 -32 209 q-27 65 -71 65q-47 0 -81 -57q-42 -70 -42 -205v-23z" />
<glyph unicode="7" horiz-adv-x="760" d="M37 1188v205h647l41 -205q-149 -358 -214 -592q-72 -263 -105 -596h-267q58 365 138 629q72 239 215 559h-455z" />
<glyph unicode="8" horiz-adv-x="760" d="M23 399q0 231 178 332v6q-79 39 -123 132q-41 84 -41 182q0 145 96 253q100 113 246 113t246 -113q96 -108 96 -253q0 -100 -41 -184q-45 -90 -123 -130v-8q180 -106 180 -336q0 -170 -97 -289q-102 -124 -261 -124q-162 0 -261 122q-95 117 -95 297zM266 399 q0 -225 113 -225t113 227q0 236 -113 236q-51 0 -82 -63.5t-31 -174.5zM274 1038q0 -92 30.5 -149.5t74.5 -57.5q104 0 104 207q0 187 -104 187q-105 0 -105 -187z" />
<glyph unicode="9" horiz-adv-x="760" d="M23 922q0 217 98.5 356t249.5 139q186 0 271 -158t85 -516q0 -394 -91.5 -578.5t-281.5 -184.5q-138 0 -228 115q-85 109 -85 261h244q0 -188 71 -188q118 0 127 342q-62 -37 -143 -37q-136 0 -226.5 129.5t-90.5 319.5zM258 942q0 -276 104 -276q47 0 79 53 q42 70 42 215v16q0 275 -118 275q-107 0 -107 -283z" />
<glyph unicode=":" horiz-adv-x="424" d="M92 0v293h240v-293h-240zM92 743v293h240v-293h-240z" />
<glyph unicode=";" horiz-adv-x="424" d="M37 -246l55 535h252q0 -105 -147 -473l-25 -62h-135zM92 743v293h240v-293h-240z" />
<glyph unicode="&#x3c;" d="M59 641v205l676 442v-192l-542 -351v-4l542 -350v-192z" />
<glyph unicode="=" d="M72 426v184h663v-184h-663zM72 870v187h663v-187h-663z" />
<glyph unicode="&#x3e;" d="M72 199v192l542 350v4l-542 351v192l673 -442v-205z" />
<glyph unicode="?" horiz-adv-x="662" d="M55 1130v281q123 100 219 100q174 0 268 -112q85 -100 85 -262q0 -138 -109.5 -318t-109.5 -309v-57h-234v86q0 128 55 240q50 86 101 172q55 97 55 190q0 155 -115 155q-58 0 -215 -166zM174 0v295h234v-295h-234z" />
<glyph unicode="@" horiz-adv-x="1370" d="M61 600q0 350 201.5 587.5t493.5 237.5q273 0 427 -173q144 -162 144 -429q0 -274 -103 -429.5t-284 -155.5q-120 0 -154 71q-86 -71 -180 -71q-118 0 -181 85q-60 81 -60 218q0 203 94 345q98 148 250 148q68 0 122 -43l21 49l188 -51l-94 -502q-2 -11 -2 -57 q0 -61 19 -61q89 0 154 119q69 127 69 319q0 477 -434 477q-216 0 -373 -189q-164 -199 -164 -497q0 -269 147 -439q139 -159 338 -159q198 0 418 197l66 -125q-253 -207 -475 -207q-279 0 -463.5 210t-184.5 525zM567 539q0 -170 60 -170q83 0 112 157l41 222 q0 151 -65 151q-61 0 -102 -89q-46 -99 -46 -271z" />
<glyph unicode="A" horiz-adv-x="956" d="M-31 0l393 1493h234l391 -1493h-256l-92 371h-324l-92 -371h-254zM369 578h221l-113 464z" />
<glyph unicode="B" horiz-adv-x="928" d="M92 0v1487h383q373 0 373 -389q0 -98 -38 -184q-42 -94 -112 -132v-2q187 -109 187 -374q0 -162 -77 -271q-95 -135 -280 -135h-436zM336 205h164q133 0 133 229q0 250 -162 250q-75 0 -135 -6v-473zM336 868q51 -8 127 -8q137 0 137 217q0 117 -31 161t-106 44h-127 v-414z" />
<glyph unicode="C" horiz-adv-x="926" d="M49 684v121q0 358 129 544q115 164 305 164q201 0 308 -134q98 -123 98 -328h-248q0 249 -147 249q-193 0 -193 -520v-69q0 -525 193 -525q74 0 108 52q39 58 39 200h248q0 -205 -99 -329q-109 -136 -311 -136q-187 0 -301 165q-129 187 -129 546z" />
<glyph unicode="D" horiz-adv-x="1014" d="M92 0v1487h359q252 0 386 -198q132 -193 132 -546q0 -349 -132 -544q-135 -199 -386 -199h-359zM338 213h113q268 0 268 530q0 283 -66 409q-63 122 -202 122h-113v-1061z" />
<glyph unicode="E" horiz-adv-x="860" d="M92 0v1487h703v-213h-457v-400h436v-210h-436v-451h467v-213h-713z" />
<glyph unicode="F" horiz-adv-x="786" d="M92 0v1487h664v-213h-418v-404h362v-211h-362v-659h-246z" />
<glyph unicode="G" horiz-adv-x="1014" d="M49 727q0 357 125 566q131 220 373 220q179 0 297 -154q108 -140 108 -319h-247q0 267 -158 267q-246 0 -246 -572q0 -272 70 -417q63 -132 166 -132q93 0 168 50v378h-236v211h483v-702q-232 -150 -409 -150q-240 0 -370 210q-124 199 -124 544z" />
<glyph unicode="H" horiz-adv-x="1024" d="M92 0v1487h246v-606h348v606h246v-1487h-246v670h-348v-670h-246z" />
<glyph unicode="I" horiz-adv-x="430" d="M92 0v1487h246v-1487h-246z" />
<glyph unicode="J" horiz-adv-x="498" d="M-111 0q61 -39 156 -39q107 0 107 295v1231h247v-1241q0 -225 -72 -361q-88 -164 -268 -164q-92 0 -170 37v242z" />
<glyph unicode="K" horiz-adv-x="932" d="M92 0v1487h244v-592q57 -10 98 -10q113 0 113 184v139q0 139 48 220q46 77 120 77q90 0 153 -28v-226q-30 19 -63 19q-41 0 -41 -105v-71q0 -176 -70 -279q93 -59 127 -170q31 -97 31 -291q0 -230 43 -354h-248q-41 161 -41 340q0 215 -31 283q-33 73 -137 73 q-49 0 -102 -10v-686h-244z" />
<glyph unicode="L" horiz-adv-x="778" d="M92 0v1487h244v-1274h418v-213h-662z" />
<glyph unicode="M" horiz-adv-x="1239" d="M92 0v1487h320l209 -875l208 875h318v-1487h-240v547l8 280h-4l-227 -827h-129l-225 827h-4l8 -280v-547h-242z" />
<glyph unicode="N" horiz-adv-x="1044" d="M92 0v1487h275l350 -899v899h235v-1487h-272l-352 897v-897h-236z" />
<glyph unicode="O" horiz-adv-x="1067" d="M49 688v111q0 329 130 521.5t353 192.5q224 0 355 -192.5t131 -521.5v-111q0 -329 -131 -522t-355 -193q-223 0 -353 193t-130 522zM301 707q0 -521 231 -521q234 0 234 521v73q0 520 -234 520q-231 0 -231 -520v-73z" />
<glyph unicode="P" horiz-adv-x="874" d="M92 0v1487h340q207 0 316 -131q96 -115 96 -301q0 -207 -99 -332q-106 -133 -292 -133q-45 0 -115 14v-604h-246zM338 819q54 -18 117 -18q74 0 104 47q35 56 35 203q0 123 -38 174t-124 51h-94v-457z" />
<glyph unicode="Q" horiz-adv-x="1067" d="M49 684v123q0 326 138 520q133 186 345 186q209 0 344 -186q142 -196 142 -520v-123q0 -317 -123 -498q92 4 172 37v-254l-362 41q-87 -37 -173 -37q-226 0 -354.5 189t-128.5 522zM301 711q0 -525 231 -525q234 0 234 525v69q0 261 -67 397q-61 123 -167 123 q-103 0 -164 -123q-67 -136 -67 -397v-69z" />
<glyph unicode="R" horiz-adv-x="913" d="M92 0v1487h387q170 0 271 -111q98 -109 98 -289q0 -98 -43 -189q-47 -99 -127 -146v-4q162 -93 162 -398q0 -188 37 -350h-250q-37 215 -37 350q0 309 -158 309q-56 0 -96 -8v-651h-244zM336 854q45 -8 110 -8q152 0 152 223q0 138 -29 176q-24 31 -110 31h-123v-422z " />
<glyph unicode="S" horiz-adv-x="924" d="M49 424v43h250q0 -163 38 -226q35 -57 120 -57q170 0 170 236q0 120 -42 164q-34 36 -167 78q-196 62 -278 160q-81 95 -81 257q0 182 108 304q115 130 306 130q166 0 270 -115q99 -109 99 -270v-43h-244q-3 127 -35 174q-29 44 -102 44q-152 0 -152 -168q0 -117 32 -159 q36 -46 179 -104q195 -79 270 -166q84 -97 84 -270q0 -201 -107 -328q-114 -135 -306 -135q-199 0 -305.5 119t-106.5 332z" />
<glyph unicode="T" horiz-adv-x="831" d="M0 1268v219h831v-219h-292v-1268h-248v1268h-291z" />
<glyph unicode="U" horiz-adv-x="1049" d="M86 575v912h244v-875q0 -236 50 -334q45 -90 146 -90q100 0 144 90q47 97 47 334v875h246v-912q0 -602 -437 -602q-440 0 -440 602z" />
<glyph unicode="V" horiz-adv-x="885" d="M-25 1487h250l217 -1032l217 1032h250l-346 -1487h-241z" />
<glyph unicode="W" horiz-adv-x="1327" d="M-18 1487h245l150 -934l155 934h267l155 -934l148 934h244l-267 -1487h-241l-174 983l-175 -983h-237z" />
<glyph unicode="X" horiz-adv-x="946" d="M-25 0l369 780l-332 707h260l201 -469l201 469h256l-328 -707l369 -780h-260l-238 545l-240 -545h-258z" />
<glyph unicode="Y" horiz-adv-x="903" d="M-25 1487h261l215 -621l217 621h260l-355 -889v-598h-245v598z" />
<glyph unicode="Z" horiz-adv-x="831" d="M31 197l499 1077h-479v213h723l21 -197l-504 -1077h504v-213h-746z" />
<glyph unicode="[" horiz-adv-x="504" d="M92 -455v2130h367v-202h-135v-1723h135v-205h-367z" />
<glyph unicode="\" horiz-adv-x="565" d="M55 1513h207l248 -1540h-205z" />
<glyph unicode="]" horiz-adv-x="502" d="M45 -250h133v1723h-133v202h365v-2130h-365v205z" />
<glyph unicode="^" d="M61 987l258 488h166l258 -488h-182l-160 283l-157 -283h-183z" />
<glyph unicode="_" horiz-adv-x="1049" d="M-12 -268h1073v-187h-1073v187z" />
<glyph unicode="`" horiz-adv-x="440" d="M37 1513h219l135 -350h-168z" />
<glyph unicode="a" horiz-adv-x="786" d="M55 295q0 152 93 253q99 107 264 107h51v86q0 82 -16 112q-15 26 -52 26q-53 0 -67 -51q-6 -21 -6 -97h-230v37q0 126 79 206q83 83 218 83q155 0 229 -82q82 -90 82 -291v-537q0 -49 13 -147h-221q-5 20 -5 25q-69 -45 -165 -45q-121 0 -196 96q-71 90 -71 219zM293 313 q0 -149 55 -149q61 0 87 52q28 56 28 200v69h-41q-74 0 -101.5 -37t-27.5 -135z" />
<glyph unicode="b" horiz-adv-x="862" d="M70 0q16 149 16 225v1266h238v-487q79 59 172 59q147 0 232 -144.5t85 -392.5q0 -245 -87 -393q-91 -153 -249 -153q-98 0 -170 69q-5 -17 -12 -49h-225zM317 539q0 -373 138 -373q116 0 116 375q0 338 -110 338q-144 0 -144 -340z" />
<glyph unicode="c" horiz-adv-x="737" d="M49 524q0 250 89 391.5t249 141.5q132 0 220.5 -106.5t88.5 -270.5h-233q0 199 -76 199q-100 0 -100 -355q0 -364 100 -364q76 0 76 217h233q0 -177 -84.5 -289.5t-224.5 -112.5q-159 0 -251 159q-87 149 -87 390z" />
<glyph unicode="d" horiz-adv-x="862" d="M49 526q0 247 86.5 392t233.5 145q96 0 168 -59v487h241v-1266q0 -15 15 -225h-224q-5 17 -12 49q-75 -69 -170 -69q-158 0 -250 153q-88 148 -88 393zM291 541q0 -375 119 -375q135 0 135 373q0 340 -142 340q-112 0 -112 -338z" />
<glyph unicode="e" horiz-adv-x="786" d="M49 498q0 260 95 409.5t262 149.5q155 0 247 -128q88 -124 88 -321q0 -78 -20 -106q-26 -35 -105 -35h-331v-37q0 -270 123 -270q98 0 98 202h227q0 -166 -89 -276.5t-228 -110.5q-177 0 -273 142q-94 138 -94 381zM285 639h221q0 240 -98 240q-117 0 -123 -240z" />
<glyph unicode="f" horiz-adv-x="483" d="M0 854v190h109v146q0 147 59 232q63 89 178 89q92 0 180 -26v-191q-66 27 -133 27q-47 0 -47 -92v-185h135v-190h-135v-854h-237v854h-109z" />
<glyph unicode="g" horiz-adv-x="844" d="M49 545q0 512 313 512q98 0 173 -68l4 47h235q-14 -101 -14 -245v-768q0 -478 -363 -478q-156 0 -240 100q-81 96 -81 263h248q0 -103 22 -142q19 -34 66 -34q57 0 79 40q29 51 29 197v92q-65 -51 -133 -51q-155 0 -244 135q-94 141 -94 400zM291 526q0 -329 115 -329 q124 0 124 317q0 356 -118 356q-121 0 -121 -344z" />
<glyph unicode="h" horiz-adv-x="834" d="M86 0v1487h238v-510q79 86 176 86q131 0 189 -79q65 -88 65 -298v-686h-238v659q0 215 -80 215q-112 0 -112 -210v-664h-238z" />
<glyph unicode="i" horiz-adv-x="420" d="M90 0v1044h240v-1044h-240zM90 1217v258h240v-258h-240z" />
<glyph unicode="j" horiz-adv-x="420" d="M-25 -137q38 -19 78 -19q33 0 39 52v77v1069h238v-1120q0 -164 -53.5 -233.5t-176.5 -69.5q-56 0 -125 25v219zM92 1217v258h238v-258h-238z" />
<glyph unicode="k" horiz-adv-x="768" d="M86 0v1487h238v-850q16 -4 34 -4q45 0 58 40q6 20 6 81v55q0 252 164 252q73 0 139 -23v-188q-31 14 -72 14q-26 0 -26 -63v-53q0 -107 -47 -181q76 -55 103 -138q19 -60 19 -171v-49q0 -125 29 -209h-225q-33 105 -33 258q0 223 -96 223q-29 0 -53 -6v-475h-238z" />
<glyph unicode="l" horiz-adv-x="412" d="M86 0v1499h240v-1499h-240z" />
<glyph unicode="m" horiz-adv-x="1247" d="M74 1036h237l11 -59q66 80 165 80q138 0 195 -111q87 111 213 111q158 0 222 -99q57 -89 57 -296v-662h-234v657q0 211 -78 211q-114 0 -114 -213v-655h-236v621q0 247 -80 247q-43 0 -73 -51q-37 -65 -37 -196v-621h-236v809q0 162 -12 227z" />
<glyph unicode="n" horiz-adv-x="829" d="M68 1036h237l14 -59q70 80 166 80q145 0 200 -73q63 -84 63 -322v-662h-234v651q0 124 -19 172q-19 45 -63 45q-46 0 -76 -51q-37 -60 -37 -176v-641h-233v811q0 135 -18 225z" />
<glyph unicode="o" horiz-adv-x="840" d="M49 487v62q0 230 101.5 369t269.5 139t269.5 -139t101.5 -369v-62q0 -230 -101.5 -368.5t-269.5 -138.5t-269.5 138.5t-101.5 368.5zM285 487q0 -325 135 -325t135 325v62q0 325 -135 325t-135 -325v-62z" />
<glyph unicode="p" horiz-adv-x="799" d="M41 1036h223q2 -18 10 -63q88 84 197 84q142 0 225.5 -146.5t83.5 -400.5q0 -251 -83 -391q-86 -144 -242 -144q-86 0 -164 58v-420h-238v1198q0 125 -12 225zM283 510q0 -180 47 -273q38 -77 94 -77q115 0 115 350q0 219 -32 298q-24 62 -85 62q-58 0 -94 -76 q-45 -94 -45 -284z" />
<glyph unicode="q" horiz-adv-x="864" d="M49 510q0 255 84.5 401t231.5 146q102 0 182 -80q6 32 16 59h225q-10 -125 -10 -276v-1147h-239v420q-78 -58 -162 -58q-158 0 -244 144q-84 140 -84 391zM291 510q0 -350 117 -350q139 0 139 350q0 360 -137 360q-63 0 -88 -62q-31 -77 -31 -298z" />
<glyph unicode="r" horiz-adv-x="551" d="M72 1036h233q10 -26 17 -59q53 80 120 80q51 0 109 -29v-186q-55 26 -121 26q-108 0 -108 -194v-674h-236v858q0 98 -14 178z" />
<glyph unicode="s" horiz-adv-x="713" d="M43 346h236v-27q0 -155 77 -155q76 0 76 131q0 75 -11 97t-56 38l-103 37q-120 43 -166.5 100.5t-46.5 169.5q0 128 85 221q92 99 233 99q133 0 212.5 -90.5t79.5 -237.5h-235v29q0 114 -66 114q-79 0 -79 -104q0 -81 79 -115l127 -55q112 -49 151 -120q32 -57 32 -169 q0 -136 -80 -229q-86 -100 -226 -100q-319 0 -319 366z" />
<glyph unicode="t" horiz-adv-x="473" d="M4 852v190h88v181l236 135v-316h127v-190h-127v-576q0 -104 22 -111q5 -1 12 -1q48 0 93 14v-170q-87 -28 -160 -28q-203 0 -203 264v608h-88z" />
<glyph unicode="u" horiz-adv-x="850" d="M100 358v678h236v-651q0 -112 5 -136q16 -83 83 -83q44 0 73 58q31 64 31 171v641h236v-811q0 -150 12 -225h-237l-11 43q-100 -63 -170 -63q-132 0 -189 71q-69 85 -69 307z" />
<glyph unicode="v" horiz-adv-x="752" d="M-12 1036h243l146 -630l143 630h244l-289 -1036h-196z" />
<glyph unicode="w" horiz-adv-x="1157" d="M0 1036h236l112 -612l115 612h229l117 -612l109 612h235l-229 -1036h-230l-116 614l-115 -614h-232z" />
<glyph unicode="x" horiz-adv-x="717" d="M-25 0l258 535l-237 501h231l131 -299l129 299h232l-236 -501l258 -535h-243l-140 332l-141 -332h-242z" />
<glyph unicode="y" horiz-adv-x="741" d="M-18 1036h235l164 -624l147 624h238l-385 -1423h-231l106 395z" />
<glyph unicode="z" horiz-adv-x="647" d="M25 207l366 641h-346v188h555l16 -207l-350 -641h350v-188h-571z" />
<glyph unicode="{" horiz-adv-x="504" d="M18 518v189q94 0 116 81q7 27 7 160v355q0 210 64 293q62 79 215 79h53v-188h-53q-43 0 -51 -88q0 1 0 -117v-350q0 -233 -107 -314v-16q107 -78 107 -311v-348q0 -120 0 -118q8 -89 51 -89h53v-191h-55q-147 0 -210 82q-67 86 -67 293v354q0 134 -7 161q-22 83 -116 83z " />
<glyph unicode="|" d="M287 -455v1968h233v-1968h-233z" />
<glyph unicode="}" horiz-adv-x="504" d="M31 -264h53q43 0 51 89q0 -2 0 118v348q0 233 107 311v16q-107 81 -107 314v350q0 118 0 117q-8 88 -51 88h-53v188h53q153 0 214 -79q64 -83 64 -293v-355q0 -133 7 -160q22 -81 116 -81v-189q-94 0 -116 -83q-7 -27 -7 -161v-354q0 -207 -67 -293q-63 -82 -209 -82h-55 v191z" />
<glyph unicode="~" d="M49 522v279q74 112 207 112q91 0 211 -69q68 -39 96 -39q78 0 193 108v-219q-83 -104 -205 -104q-78 0 -166 49q-103 57 -141 57q-45 0 -110 -70q-1 -1 -85 -104z" />
<glyph unicode="&#xa4;" d="M16 375l131 137q-59 84 -59 170q0 81 62 168l-134 137l107 111l137 -150q70 31 143 31q69 0 146 -31l137 150l102 -111l-124 -137q53 -86 53 -168q0 -85 -53 -170l124 -137l-102 -111l-137 154q-78 -33 -143 -33q-80 0 -146 33l-137 -154zM274 684q0 -168 132 -168 q126 0 126 168q0 164 -126 164q-132 0 -132 -164z" />
<glyph unicode="&#xa6;" d="M287 440h233v-895h-233v895zM287 618v895h233v-895h-233z" />
<glyph unicode="&#xa7;" d="M119 735q0 163 133 260q-113 80 -113 222q0 121 76 205q82 91 217 91q68 0 211 -55v-225q-164 100 -209 100q-47 0 -47 -96q0 -65 17.5 -94t72.5 -56q201 -98 201 -272q0 -176 -119 -262q127 -77 127 -254q0 -134 -87 -224q-91 -95 -237 -95q-87 0 -223 65v246 q173 -119 223 -119q52 0 68 34q10 22 10 85q0 128 -118 166q-84 27 -139 93q-64 78 -64 185zM348 770q0 -135 53 -135q54 0 54 156q0 64 -24 101q-19 30 -42 30q-12 0 -24 -31q-17 -43 -17 -121z" />
<glyph unicode="&#xa9;" horiz-adv-x="1393" d="M86 817q0 241 180 416q175 170 428 170q258 0 436 -172q175 -169 175 -414q0 -244 -175 -411q-183 -175 -436 -175q-247 0 -427.5 174.5t-180.5 411.5zM197 817q0 -195 148 -337t351 -142q206 0 357 143q143 135 143 336q0 200 -143 338q-146 141 -357 141 q-208 0 -350 -139q-149 -146 -149 -340zM365 813q0 161 90.5 257.5t242.5 96.5q129 0 211 -63.5t88 -167.5h-174q-9 111 -129 111q-141 0 -141 -228q0 -223 149 -223q116 0 125 121h177q-5 -112 -88.5 -180t-215.5 -68q-156 0 -245.5 91.5t-89.5 252.5z" />
<glyph unicode="&#xab;" d="M72 520l141 398h211l-123 -398l127 -414h-209zM365 520l139 398h209l-117 -398l125 -414h-207z" />
<glyph unicode="&#xac;" d="M43 641v186h698v-475h-184v289h-514z" />
<glyph unicode="&#xad;" horiz-adv-x="442" d="M43 410v217h356v-217h-356z" />
<glyph unicode="&#xae;" horiz-adv-x="1393" d="M86 768q0 256 186 434q178 170 422 170q259 0 441 -182q170 -170 170 -422q0 -256 -180 -427t-431 -171q-257 0 -432.5 178.5t-175.5 419.5zM199 768q0 -194 143 -340q149 -152 352 -152q205 0 355 144q147 141 147 348q0 201 -141 344q-152 154 -359 154 q-199 0 -346 -144q-151 -148 -151 -354zM438 453v657h269q290 0 290 -192q0 -136 -143 -177l150 -288h-203l-125 258h-53v-258h-185zM623 821h63q121 0 121 84q0 92 -131 92h-53v-176z" />
<glyph unicode="&#xb0;" horiz-adv-x="532" d="M37 1229q0 103 65 184q68 86 164 86q95 0 165 -87q67 -82 67 -183q0 -104 -66 -185q-69 -86 -166 -86q-96 0 -164 86q-65 82 -65 185zM211 1229q0 -123 55 -123q58 0 58 123q0 121 -58 121q-40 0 -50 -44q-5 -19 -5 -77z" />
<glyph unicode="&#xb1;" d="M39 0v186h727v-186h-727zM39 690v184h278v328h175v-328h274v-184h-274v-323h-175v323h-278z" />
<glyph unicode="&#xb5;" d="M80 -432v1511h174v-571q0 -196 31 -279.5t98 -83.5q133 0 133 392v542h176v-737q0 -197 33 -197h47v-145q-53 -20 -106 -20q-69 0 -111 83q-56 -83 -156 -83q-81 0 -145 61v-473h-174z" />
<glyph unicode="&#xb6;" d="M29 1128q0 154 81 256.5t214 102.5h440v-131h-96v-1356h-138v1356h-114v-1356h-131v776q-118 12 -189 115q-67 97 -67 237z" />
<glyph unicode="&#xb7;" horiz-adv-x="385" d="M82 479v275h221v-275h-221z" />
<glyph unicode="&#xbb;" d="M82 106l129 414l-119 398h209l139 -398l-149 -414h-209zM379 106l125 414l-119 398h207l143 -398l-147 -414h-209z" />
<glyph unicode="&#x2000;" horiz-adv-x="837" />
<glyph unicode="&#x2001;" horiz-adv-x="1675" />
<glyph unicode="&#x2002;" horiz-adv-x="837" />
<glyph unicode="&#x2003;" horiz-adv-x="1675" />
<glyph unicode="&#x2004;" horiz-adv-x="558" />
<glyph unicode="&#x2005;" horiz-adv-x="418" />
<glyph unicode="&#x2006;" horiz-adv-x="279" />
<glyph unicode="&#x2007;" horiz-adv-x="279" />
<glyph unicode="&#x2008;" horiz-adv-x="209" />
<glyph unicode="&#x2009;" horiz-adv-x="335" />
<glyph unicode="&#x200a;" horiz-adv-x="93" />
<glyph unicode="&#x2010;" horiz-adv-x="442" d="M43 410v217h356v-217h-356z" />
<glyph unicode="&#x2011;" horiz-adv-x="442" d="M43 410v217h356v-217h-356z" />
<glyph unicode="&#x2012;" horiz-adv-x="442" d="M43 410v217h356v-217h-356z" />
<glyph unicode="&#x2013;" horiz-adv-x="922" d="M61 459v184h799v-184h-799z" />
<glyph unicode="&#x2014;" horiz-adv-x="1536" d="M86 457v184h1364v-184h-1364z" />
<glyph unicode="&#x2018;" horiz-adv-x="446" d="M63 967q0 109 144 469l20 51h146l-56 -520h-254z" />
<glyph unicode="&#x2019;" horiz-adv-x="446" d="M74 967l57 520h252q0 -72 -143 -469l-19 -51h-147z" />
<glyph unicode="&#x201a;" horiz-adv-x="444" d="M74 -246l53 520h254q0 -116 -141 -469l-21 -51h-145z" />
<glyph unicode="&#x201c;" horiz-adv-x="729" d="M49 967q0 77 141 469l19 51h147l-55 -520h-252zM360 967q0 75 142 469l18 51h148l-54 -520h-254z" />
<glyph unicode="&#x201d;" horiz-adv-x="731" d="M61 967l56 520h254q0 -59 -55 -228q-45 -137 -89 -241l-16 -51h-150zM375 967l53 520h254q0 -116 -141 -469l-21 -51h-145z" />
<glyph unicode="&#x201e;" horiz-adv-x="731" d="M61 -246l56 520h254q0 -53 -59 -225q-42 -122 -85 -244l-16 -51h-150zM375 -246l53 520h254q0 -116 -141 -469l-21 -51h-145z" />
<glyph unicode="&#x2022;" d="M188 754v6q0 79 65.5 146t152.5 67q84 0 148 -68t64 -147q0 -81 -65 -150t-150 -69q-86 0 -150.5 67.5t-64.5 147.5z" />
<glyph unicode="&#x2026;" horiz-adv-x="1126" d="M74 0v274h223v-274h-223zM451 0v274h225v-274h-225zM829 0v274h224v-274h-224z" />
<glyph unicode="&#x202f;" horiz-adv-x="335" />
<glyph unicode="&#x2039;" horiz-adv-x="459" d="M47 520l141 398h209l-118 -398l127 -414h-209z" />
<glyph unicode="&#x203a;" horiz-adv-x="459" d="M53 106l125 414l-119 398h209l142 -398l-152 -414h-205z" />
<glyph unicode="&#x205f;" horiz-adv-x="418" />
<glyph unicode="&#x2122;" horiz-adv-x="1393" d="M154 1358v129h409v-129h-133v-426h-143v426h-133zM651 932v555h183l90 -305l94 305h182v-555h-129v391l-117 -391h-55l-121 391v-391h-127z" />
<glyph unicode="&#x25fc;" horiz-adv-x="1035" d="M0 0v1035h1035v-1035h-1035z" />
</font>
</defs>
</svg>
